<svg xmlns="http://www.w3.org/2000/svg" viewBox="0 0 56.81 52"><defs><style>.cls-1,.cls-2,.cls-4{fill:none;stroke:#1d1d1b;stroke-width:4px;}.cls-1{stroke-miterlimit:57.3;}.cls-2{stroke-linecap:round;}.cls-2,.cls-4{stroke-linejoin:round;}.cls-3{fill:#fff;}</style></defs><g id="Capa_2" data-name="Capa 2"><g id="Capa_1-2" data-name="Capa 1"><polygon class="cls-1" points="2.81 41.63 16.51 2 38.94 2 53.9 41.63 2.81 41.63"/><path class="cls-2" d="M4.79,42.07l7.3,7.74m1.06-7.74L20.63,50m1.07-7.93L29.18,50m1.06-7.93L37.72,50m1.07-7.93L46.26,50m1.07-7.93L54.81,50"/><path class="cls-3" d="M20.68,20a7.26,7.26,0,0,1,7-7.46,7.26,7.26,0,0,1,7,7.46,7.26,7.26,0,0,1-7,7.46,7.26,7.26,0,0,1-7-7.46"/><ellipse class="cls-4" cx="27.71" cy="20.04" rx="7.04" ry="7.46"/></g></g></svg>